HIERARCHY
ROOT Hips
{
  OFFSET 3.13124 94.3669 -3.18751
  CHANNELS  6 Xposition Yposition Zposition Zrotation Xrotation Yrotation
  JOINT LeftUpLeg
  {
    OFFSET 8.64259 1.95398 -2.38835
    CHANNELS 3 Zrotation Xrotation Yrotation
    JOINT LeftLeg
    {
      OFFSET 43.7702 0 0
      CHANNELS 3 Zrotation Xrotation Yrotation
      JOINT LeftFoot
      {
        OFFSET 40.6238 0 0
        CHANNELS 3 Zrotation Xrotation Yrotation
        JOINT LeftToeBase
        {
          OFFSET 12.7242 0 0
          CHANNELS 3 Zrotation Xrotation Yrotation
          End Site
          {
            OFFSET 0 0 0
          }
        }
      }
    }
  }
  JOINT RightUpLeg
  {
    OFFSET -8.2249 1.95398 -2.59336
    CHANNELS 3 Zrotation Xrotation Yrotation
    JOINT RightLeg
    {
      OFFSET 43.5653 0 0
      CHANNELS 3 Zrotation Xrotation Yrotation
      JOINT RightFoot
      {
        OFFSET 40.6238 0 0
        CHANNELS 3 Zrotation Xrotation Yrotation
        JOINT RightToeBase
        {
          OFFSET 12.7242 0 0
          CHANNELS 3 Zrotation Xrotation Yrotation
          End Site
          {
            OFFSET 0 0 0
          }
        }
      }
    }
  }
  JOINT Spine
  {
    OFFSET 0.165834 0.87714 6.61349
    CHANNELS 3 Zrotation Xrotation Yrotation
    JOINT Spine1
    {
      OFFSET 7.38962 1.71661e-005 0
      CHANNELS 3 Zrotation Xrotation Yrotation
      JOINT Spine2
      {
        OFFSET 11.9445 1.14441e-005 0
        CHANNELS 3 Zrotation Xrotation Yrotation
        JOINT Spine3
        {
          OFFSET 14.7254 4.19617e-005 0
          CHANNELS 3 Zrotation Xrotation Yrotation
          JOINT Spine4
          {
            OFFSET 10.9679 0 0
            CHANNELS 3 Zrotation Xrotation Yrotation
            JOINT RightShoulder
            {
              OFFSET 2.46616 -1.6653 3.69651
              CHANNELS 3 Zrotation Xrotation Yrotation
              JOINT RightArm
              {
                OFFSET 13.0012 0 0
                CHANNELS 3 Zrotation Xrotation Yrotation
                JOINT RightForeArm
                {
                  OFFSET 28.7848 1.52588e-005 0
                  CHANNELS 3 Zrotation Xrotation Yrotation
                  JOINT RightHand
                  {
                    OFFSET 26.5688 1.52588e-005 0
                    CHANNELS 3 Zrotation Xrotation Yrotation
                    End Site
                    {
                      OFFSET 0 0 0
                    }
                  }
                }
              }
            }
            JOINT LeftShoulder
            {
              OFFSET 2.38034 -1.29275 -3.75231
              CHANNELS 3 Zrotation Xrotation Yrotation
              JOINT LeftArm
              {
                OFFSET 16.3182 6.10352e-005 0
                CHANNELS 3 Zrotation Xrotation Yrotation
                JOINT LeftForeArm
                {
                  OFFSET 27.0901 0 0
                  CHANNELS 3 Zrotation Xrotation Yrotation
                  JOINT LeftHand
                  {
                    OFFSET 24.5451 1.52588e-005 0
                    CHANNELS 3 Zrotation Xrotation Yrotation
                    End Site
                    {
                      OFFSET 0 0 0
                    }
                  }
                }
              }
            }
            JOINT Neck
            {
              OFFSET 5.0226 -0.0266342 0
              CHANNELS 3 Zrotation Xrotation Yrotation
              JOINT Head
              {
                OFFSET 6.69363 2.86102e-005 0
                CHANNELS 3 Zrotation Xrotation Yrotation
                End Site
                {
                  OFFSET 0 0 0
                }
              }
            }
          }
        }
      }
    }
  }
}
MOTION
Frames:	18
Frame Time:	0.0333333
42.2836 94.5346 -9.45831 -91.63 -8.58892 -94.4955 -178.647 8.30917 92.388 -44.5555 20.832 15.7748 40.7261 -2.16747 -2.81269 28.7808 2.91151e-006 4.20511e-006 177.621 7.4703 85.2173 -16.0461 -2.91719 -0.199307 64.1361 -7.46049 -4.1502 28.7808 1.3983e-005 2.32281e-005 0.0196583 6.70568 -90.4236 13.4637 0.0440345 -0.200361 1.79276 0.0351545 -0.20202 -20.7423 0.102175 -0.177788 -0.729628 0.102165 -0.177805 85.2372 -52.4873 -107.293 8.86558 24.0829 18.078 11.8652 18.5077 -42.893 27.896 9.75885 32.1494 -116.759 -53.3113 42.5464 -22.2581 -11.1567 -36.2991 -32.928 -25.2903 -61.1584 14.8134 2.21716 10.4705 -8.46568 12.1302 14.1991 -21.484 9.22608 12.3492 
41.6937 94.5638 -9.96776 -92.0003 -7.48219 -94.7326 -178.737 7.9968 91.4033 -42.0335 10.7644 13.9007 42.275 1.12419 0.099093 28.7808 2.91151e-006 4.20511e-006 177.785 7.06718 85.3627 -16.5759 -3.68436 -0.244114 64.6861 -7.92083 -4.39391 28.7808 1.3983e-005 2.32281e-005 -0.178326 6.79942 -90.2427 13.2756 -0.402136 -0.269858 1.60462 -0.413694 -0.253272 -20.9306 -0.302096 -0.379387 -0.91792 -0.302098 -0.379396 85.5184 -51.7544 -107.107 10.254 23.493 17.8617 10.652 16.9282 -42.8462 26.6971 9.58295 33.0279 -118.91 -52.0614 39.0806 -24.6098 -8.56909 -33.3701 -6.2214 -9.30242 -46.1581 7.93415 4.52424 41.7865 -6.9995 14.0518 15.4569 -21.2576 10.5942 14.1418 
41.0953 94.2633 -10.407 -91.9195 -5.96845 -94.535 -178.314 7.28857 91.1711 -39.2749 8.56024 12.7693 36.4038 1.00625 -0.141467 28.7808 2.91151e-006 4.20511e-006 178.071 8.03084 85.871 -18.9519 -4.76547 -0.316392 66.0813 -8.40799 -4.56306 28.7808 1.3983e-005 2.32281e-005 -0.547873 6.90919 -90.296 13.0579 -1.11721 -0.23692 1.38745 -1.12655 -0.187519 -21.1507 -0.994341 -0.561753 -1.13807 -0.994361 -0.561773 85.3816 -52.0957 -107.205 11.8527 23.0887 15.3955 9.85878 15.6168 -43.3201 25.6331 9.10826 32.7555 -116.889 -50.7908 41.0267 -27.4993 -6.00874 -13.4518 33.0915 17.5768 -64.7423 -29.1108 -8.28463 28.1177 -4.00215 17.1958 15.865 -21.5559 12.6582 17.6126 
40.4205 94.0502 -10.814 -91.4336 -4.30947 -94.3091 -177.91 6.78539 91.0872 -36.8819 3.72444 11.4545 32.6797 3.28272 2.05252 28.7808 2.91151e-006 4.20511e-006 178.262 8.87862 86.3529 -20.2769 -5.8686 -0.385428 67.0763 -8.55063 -4.56062 28.7808 1.3983e-005 2.32281e-005 -0.844303 6.979 -90.3893 12.9221 -1.74816 -0.203952 1.25229 -1.75545 -0.126815 -21.291 -1.60614 -0.719772 -1.2784 -1.60612 -0.719785 85.2967 -52.9167 -107.087 13.1357 22.8243 12.6004 9.74114 14.9268 -44.2887 25.613 9.06274 32.5544 -115.886 -52.1625 43.0801 -30.0805 -4.69875 -2.30553 60.3628 25.778 -77.0802 -34.4128 -1.38207 0.129279 -2.24578 19.8728 15.8733 -20.2807 14.6165 21.6744 
39.8505 94.0827 -11.2669 -90.8464 -2.86705 -94.2903 -177.632 6.82503 91.0015 -36.6223 -0.686819 10.4643 33.3561 3.66849 2.43575 28.7808 2.91151e-006 4.20511e-006 178.394 9.15393 86.6322 -20.1768 -7.07451 -0.448863 67.0348 -8.90223 -4.76454 28.7808 1.3983e-005 2.32281e-005 -0.988449 6.99955 -90.2742 12.8788 -1.99233 -0.155866 1.20938 -1.99747 -0.0677211 -21.3367 -1.85188 -0.75178 -1.32409 -1.85188 -0.751798 85.2614 -53.5428 -106.954 14.2223 22.5281 11.8033 10.6109 14.9364 -46.1806 27.0625 9.23035 31.2688 -116.623 -54.6726 43.4401 -31.7224 -3.6896 2.2595 58.7567 24.4396 -76.8595 -34.2746 -1.05718 -0.990726 -2.28399 21.0079 15.4065 -17.2097 15.8822 25.304 
39.4931 94.1358 -11.6884 -90.5087 -2.00138 -94.5775 -177.306 6.93948 90.9523 -36.5148 -1.95681 9.87114 33.1438 5.23013 4.00559 28.7808 2.91151e-006 4.20511e-006 178.418 9.35982 86.6252 -20.1855 -7.64158 -0.478522 66.9887 -9.14103 -4.89955 28.7808 1.3983e-005 2.32281e-005 -0.975555 7.03449 -90.1534 12.8078 -1.9403 -0.0398369 1.13828 -1.94014 0.0456203 -21.4076 -1.84108 -0.621327 -1.395 -1.8411 -0.621348 85.5644 -53.8587 -106.422 15.314 22.0904 12.7708 13.3754 16.4466 -48.9589 28.22 9.11569 29.4597 -116.842 -55.3777 43.5241 -33.0999 -2.21154 3.85338 39.0003 16.7228 -70.5505 -34.4388 -4.49635 10.8837 -2.29113 21.2746 15.1559 -14.3698 16.5415 27.3253 
39.3025 94.2011 -12.0564 -90.37 -2.02314 -95.1153 -177.1 7.44308 90.9437 -36.773 -1.57336 9.53653 33.3149 6.08752 4.84656 28.7808 2.91151e-006 4.20511e-006 178.345 9.53853 86.3361 -20.4341 -7.54961 -0.474688 67.0026 -9.3712 -5.02389 28.7808 1.3983e-005 2.32281e-005 -0.898978 7.09101 -90.0371 12.6947 -1.74812 0.118213 1.0249 -1.74122 0.195056 -21.5194 -1.7028 -0.412788 -1.50673 -1.70282 -0.412809 85.8651 -54.0505 -105.933 16.4245 21.5156 14.809 17.097 18.5377 -51.8465 28.121 8.31223 26.6756 -116.733 -55.1859 43.5681 -33.3229 -1.7897 3.86951 31.2599 13.1591 -68.9584 -33.9841 -6.31022 17.3624 -1.27839 21.2928 14.7524 -13.0334 16.6291 28.3681 
39.0051 94.3344 -12.0852 -90.9569 -2.91174 -95.8362 -176.988 7.16076 90.8432 -35.9582 -4.16582 8.87681 36.6496 8.25536 6.72002 28.7808 2.91151e-006 4.20511e-006 178.038 8.60727 85.6184 -20.1976 -6.96963 -0.443203 67.2228 -9.26571 -4.94373 28.7808 1.3983e-005 2.32281e-005 -0.830399 7.20421 -89.9951 12.4727 -1.55523 0.368662 0.802541 -1.53749 0.436762 -21.74 -1.5941 -0.115905 -1.72733 -1.59414 -0.115922 85.7632 -54.4604 -105.969 17.3833 20.9068 16.6129 20.105 20.5123 -53.412 26.8686 7.40038 24.6367 -116.14 -55.1531 44.3053 -32.627 -2.73358 4.22582 33.804 14.4724 -69.2679 -32.3759 -4.74268 12.8391 -0.231094 21.0842 13.7998 -12.6276 16.3751 29.6467 
38.8501 94.5023 -12.1604 -90.531 -4.71242 -96.2565 -176.885 8.67493 91.1933 -35.1768 -5.92888 8.49824 39.4814 9.54347 7.62208 28.7808 2.91151e-006 4.20511e-006 177.911 8.45227 85.2667 -19.3889 -5.25694 -0.344514 66.936 -9.06101 -4.85898 28.7808 1.3983e-005 2.32281e-005 -0.7548 7.18199 -89.9132 12.5159 -1.37772 0.47278 0.845593 -1.3556 0.53296 -21.6954 -1.4561 0.0367807 -1.68276 -1.45612 0.0367682 85.3778 -54.8722 -106.398 17.6986 20.5589 17.8344 20.4194 21.5085 -52.5829 26.7997 7.35746 24.5281 -116.126 -55.3209 44.4111 -31.3594 -4.37717 3.58357 36.9713 17.1782 -68.5352 -27.4802 -2.57307 6.65035 -0.202015 20.6187 13.7935 -11.8196 16.0391 30.221 
38.8605 94.6085 -12.2109 -89.972 -7.25993 -96.5074 -176.683 10.7049 91.7458 -34.0349 -6.16191 7.9631 41.079 9.86613 7.75124 28.7808 2.91151e-006 4.20511e-006 177.786 8.60285 85.0239 -18.7584 -2.94836 -0.213834 66.753 -8.79128 -4.72506 28.7808 1.3983e-005 2.32281e-005 -0.672845 7.12076 -89.9493 12.64 -1.23797 0.543838 0.969481 -1.21284 0.597792 -21.5703 -1.34421 0.146602 -1.55763 -1.34419 0.146593 84.8155 -55.1728 -107.118 18.2369 20.074 18.7084 19.2521 21.7341 -50.7063 26.1081 7.41084 25.5142 -116.378 -55.5602 44.2117 -29.7253 -5.75567 1.61002 38.0172 17.8624 -68.6031 -25.543 -2.72328 8.44539 -0.621307 20.0246 14.1755 -11.0586 15.6336 30.2482 
38.8591 94.6222 -12.1586 -89.4651 -10.4227 -96.4899 -176.48 12.7427 92.3387 -32.1614 -6.26006 7.24961 42.8935 9.83222 7.51623 28.7808 2.91151e-006 4.20511e-006 177.707 8.70015 84.9502 -18.3379 0.0459071 -0.0430534 66.8296 -8.45436 -4.53173 28.7808 1.3983e-005 2.32281e-005 -0.63059 7.07094 -90.0781 12.7422 -1.18703 0.56404 1.07167 -1.16106 0.615987 -21.4678 -1.30158 0.180843 -1.45515 -1.30157 0.180831 84.033 -55.2091 -108.219 19.0336 19.5207 19.1097 17.5567 21.2913 -48.801 24.326 7.45506 27.9052 -116.034 -55.8815 44.8142 -28.2482 -6.98079 -1.28409 31.4453 15.5632 -65.8084 -21.5139 -2.67468 10.8966 -0.671282 19.557 14.2756 -10.7955 15.2121 30.2832 
38.8064 94.5741 -11.9572 -89.3911 -13.5604 -96.5647 -176.14 14.2131 92.6878 -29.642 -7.04694 6.3084 44.5365 9.58858 7.14657 28.7808 2.91151e-006 4.20511e-006 177.639 8.58046 84.7361 -18.5103 3.05541 0.129508 67.3546 -8.03922 -4.27229 28.7808 1.3983e-005 2.32281e-005 -0.522281 7.07083 -90.178 12.742 -1.02316 0.525731 1.0713 -0.99906 0.570253 -21.467 -1.13386 0.194744 -1.45438 -1.13388 0.194726 83.5247 -55.0498 -108.991 19.2693 19.3268 19.2127 11.8308 16.4526 -46.0267 26.5615 9.15646 31.6644 -115.579 -56.1444 45.521 -27.0679 -7.8004 -4.82231 20.687 10.2551 -62.7023 -16.7849 -2.64775 15.4571 -0.627259 18.89 14.3301 -10.9305 14.4987 30.2612 
38.8194 94.446 -11.7438 -88.9055 -16.9323 -96.1417 -175.845 16.1047 93.2087 -26.7337 -8.18575 5.21813 45.112 8.79809 6.44781 28.7808 2.91151e-006 4.20511e-006 177.721 8.88143 84.9299 -18.7602 6.44441 0.329094 67.8238 -7.59423 -4.00759 28.7808 1.3983e-005 2.32281e-005 -0.381939 7.01608 -90.3259 12.8501 -0.833076 0.415202 1.17936 -0.814007 0.451455 -21.3578 -0.91937 0.145616 -1.34517 -0.919354 0.145599 83.3196 -54.9375 -109.318 20.1533 18.8387 19.8033 9.40094 14.0917 -45.0939 26.561 8.45345 29.0102 -114.962 -55.9772 46.2316 -25.6962 -8.99523 -7.97955 6.06129 1.69246 -60.4842 -11.4137 -1.78131 16.7541 -0.279755 18.2136 13.842 -11.6351 13.6578 30.2658 
38.7083 94.2959 -11.3924 -88.403 -20.7729 -95.6036 -175.634 17.6472 93.4403 -23.1831 -9.36389 4.0953 45.1269 7.68338 5.54679 28.7808 2.91151e-006 4.20511e-006 177.772 8.91424 85.1286 -18.7954 10.3231 0.567705 68.3806 -7.06966 -3.70544 28.7808 1.3983e-005 2.32281e-005 -0.260028 6.94607 -90.4983 12.9882 -0.70056 0.335248 1.3174 -0.685127 0.365754 -21.2193 -0.768935 0.109196 -1.20666 -0.768943 0.10918 83.2735 -55.1246 -109.319 20.445 18.7164 19.1793 3.60935 7.73587 -44.0418 27.3303 8.98656 30.0859 -114.133 -56.0441 47.3346 -24.3805 -10.2349 -10.5532 -8.00518 -6.86084 -61.3339 -6.4738 -0.862315 16.9508 0.0606618 17.4225 12.7157 -12.5234 12.7296 30.4674 
38.4028 94.0903 -10.9858 -88.7776 -24.2818 -95.4087 -175.217 17.7672 93.4076 -19.1676 -10.6527 3.18138 46.075 7.26043 5.15468 28.7808 2.91151e-006 4.20511e-006 177.831 8.30056 85.3243 -19.6216 13.9955 0.802383 69.4104 -6.46723 -3.35389 28.7808 1.3983e-005 2.32281e-005 -0.104225 6.94224 -90.6696 12.9922 -0.492234 0.218116 1.32139 -0.482161 0.239574 -21.2146 -0.535043 0.0600949 -1.20197 -0.535063 0.0600795 83.9334 -55.1257 -108.387 19.8871 19.0348 19.1872 0.584165 4.22508 -44.2573 29.5379 9.28993 28.4785 -113.662 -56.4554 48.1427 -23.2356 -11.5904 -11.7125 -15.1176 -11.1175 -61.9477 -4.30159 -0.381291 13.054 -0.207396 16.4702 12.3003 -13.0239 11.7996 29.8408 
38.1354 93.948 -10.342 -88.3718 -28.2282 -94.48 -175.198 18.6196 93.2227 -15.356 -11.9506 2.655 45.9082 6.89368 4.8859 28.7808 2.91151e-006 4.20511e-006 178.052 7.75014 85.869 -19.3354 18.2349 1.09472 69.7711 -5.74137 -2.98936 28.7808 1.3983e-005 2.32281e-005 0.00488279 6.83901 -90.7948 13.1961 -0.378984 0.0420625 1.52518 -0.376767 0.0586923 -21.0104 -0.374104 -0.0737754 -0.997762 -0.374117 -0.0738016 84.366 -55.0091 -107.807 19.1739 19.4144 18.9156 0.396001 4.00192 -44.327 29.749 8.96888 27.266 -113.139 -56.7737 48.9669 -22.2516 -12.747 -12.9038 -18.5595 -12.9679 -62.7585 -1.7166 0.00600453 13.4655 -0.340041 15.5409 11.3427 -13.9568 10.843 29.2583 
37.8137 93.7206 -9.57975 -87.9276 -32.0151 -93.3543 -175.236 19.0107 92.9576 -11.5386 -13.3698 2.18412 46.7521 6.22367 4.31687 28.7808 2.91151e-006 4.20511e-006 178.338 7.31744 86.5634 -19.4838 22.4347 1.40504 70.3154 -4.80383 -2.52269 28.7808 1.3983e-005 2.32281e-005 0.106756 6.73352 -90.9254 13.4038 -0.280456 -0.0862443 1.73283 -0.283977 -0.0738254 -20.8025 -0.241565 -0.166529 -0.789825 -0.241571 -0.166556 84.5138 -55.3688 -107.489 17.8167 20.1359 18.2615 2.00692 5.79458 -44.4727 29.1271 8.76137 27.1853 -112.027 -56.703 50.3714 -22.0419 -12.9562 -14.6307 -23.075 -16.0783 -62.651 4.52171 0.764667 9.83037 0.00130735 14.836 9.64554 -15.4676 10.0096 28.8443 
37.4598 93.5018 -8.6738 -87.6513 -35.5557 -92.2377 -175.379 19.1707 92.6137 -8.57877 -14.9414 1.81697 48.0359 5.55356 3.73427 28.7808 2.91151e-006 4.20511e-006 178.647 6.5713 87.2919 -19.5413 26.3921 1.72287 70.8093 -3.83897 -2.05505 28.7808 1.3983e-005 2.32281e-005 0.193576 6.64542 -91.0419 13.5768 -0.202759 -0.227674 1.90591 -0.212593 -0.218517 -20.6292 -0.124982 -0.278072 -0.616507 -0.124977 -0.27809 84.5456 -55.6777 -107.355 16.1717 20.9825 17.0471 3.38117 7.50258 -43.9268 29.0691 8.77513 27.2951 -110.639 -56.4923 52.0779 -21.8084 -13.2753 -15.2418 -23.9536 -17.2886 -61.7546 7.44955 0.859626 6.64778 0.349453 14.2513 8.28655 -16.8486 9.33092 28.2242 
